<?xml version="1.0" encoding="UTF-8" standalone="no"?>
<svg
   id="artwork"
   viewBox="0 0 120 120"
   version="1.1"
   sodipodi:docname="Chess.svg"
   width="120"
   height="120"
   inkscape:version="1.3.2 (091e20e, 2023-11-25, custom)"
   xmlns:inkscape="http://www.inkscape.org/namespaces/inkscape"
   xmlns:sodipodi="http://sodipodi.sourceforge.net/DTD/sodipodi-0.dtd"
   xmlns="http://www.w3.org/2000/svg"
   xmlns:svg="http://www.w3.org/2000/svg">
  <sodipodi:namedview
     id="namedview5"
     pagecolor="#505050"
     bordercolor="#eeeeee"
     borderopacity="1"
     inkscape:showpageshadow="0"
     inkscape:pageopacity="0"
     inkscape:pagecheckerboard="0"
     inkscape:deskcolor="#505050"
     inkscape:zoom="6.4302803"
     inkscape:cx="40.977996"
     inkscape:cy="54.818761"
     inkscape:window-width="1920"
     inkscape:window-height="1057"
     inkscape:window-x="-8"
     inkscape:window-y="-8"
     inkscape:window-maximized="1"
     inkscape:current-layer="artwork" />
  <defs
     id="defs1">
    <style
       id="style1">.cls-1{fill:#5d9948;}.cls-1,.cls-2,.cls-3,.cls-4{stroke-width:0px;}.cls-2{fill:#81b64c;}.cls-3{fill:#2e2c29;}.cls-4{fill:#b2e068;}</style>
  </defs>
  <path
     style="display:inline;fill:#ffffff;stroke-width:0.155514;fill-opacity:1"
     d="M -0.15551422,59.950731 V 0.07775711 H 60.028488 120.21249 V 59.950731 119.8237 H 60.028488 -0.15551422 Z"
     id="path8" />
  <g
     id="g5"
     transform="matrix(0.56806696,0,0,0.56806696,20.000167,6.003145)"
     style="display:inline">
    <path
       class="cls-3"
       d="m 116.67,116.54 c -6.76,-5.15 -11.56,-10.33 -14.31,-15.43 h 5.31 c 0.73,0 1.41,-0.38 1.79,-1.01 6.9,-11.49 9.61,-20.39 8.84,-33.72 -0.04,-0.66 -0.39,-1.26 -0.93,-1.62 -2.85,-1.88 -8.08,-5.32 -10.25,-6.75 C 117.02,36.12 104.36,8.6 81.19,2.05 48.58,-8.98 16.44,26.8 30.87,58 c -2.14,1.41 -7.41,4.88 -10.24,6.75 -0.55,0.36 -0.9,0.97 -0.94,1.62 -0.77,13.34 1.95,22.25 8.84,33.72 0.38,0.63 1.06,1.01 1.79,1.01 h 5.31 c -6.38,11.93 -27.3,22.43 -31.36,38.92 -17.25,44.37 20.47,49.39 64.72,49.33 30.99,-0.34 66.48,-1.41 68.71,-26.44 0,-19.29 -7.67,-36.19 -21.03,-46.38 z"
       id="path1" />
    <path
       class="cls-1"
       d="M 106.8,129.48 C 80.48,109.41 83.4,91.99 83.07,84.83 c 0,0 16.05,0 16.05,0 1.88,-3.49 2.83,-6.71 2.83,-10.74 L 83.75,62.1 v 0 C 90.07,57.52 94.2,50.09 94.2,41.68 94.2,31.1 87.68,22.04 78.44,18.3 75.52,17.12 54.91,84.82 54.91,84.82 c -0.07,1.55 -0.09,3.58 -0.09,6.02 0,6.72 16.53,5.71 15.65,11.65 -1.32,8.88 -1.6,15.63 -9.24,36.97 -5.16,14.4 -39.59,0 -42.04,7.07 -1.71,4.92 -2.62,10.43 -2.62,16.38 0,0.64 1.38,10.16 52.43,10.16 51.05,0 52.43,-9.53 52.43,-10.16 0,-14.48 -5.41,-26.41 -14.62,-33.44 z"
       id="path2" />
    <path
       class="cls-2"
       d="M 68.06,138.49 C 70.9,125.58 73.42,111.81 74.95,103.57 76.86,93.28 61.24,91.44 54.83,90.5 c -0.29,8.79 -2.75,23.05 -23.65,38.99 -5.64,4.3 -9.84,10.44 -12.26,17.87 5.64,2.75 13.18,4.39 24.79,4.39 7.45,0 21.25,0.89 24.36,-13.26 z"
       id="path3" />
    <path
       class="cls-2"
       d="M 79.03,84.83 C 81.5,78.41 81.18,74.09 81.18,74.09 L 70.87,62.11 C 81.83,57.43 88.43,48.64 88.43,38.4 c 0,-8.18 -3.9,-15.44 -9.93,-20.04 0,0 0,0 0,0 -2.94,-1.2 -6.15,-1.86 -9.51,-1.86 -13.92,0 -25.21,11.29 -25.21,25.21 0,8.4 4.12,15.84 10.45,20.42 l -18.2,11.99 c 0,4.02 0.95,7.25 2.83,10.74 h 40.17 z"
       id="path4" />
    <path
       style="display:inline;fill:#000000;stroke-width:0.155514"
       d="m 52.952591,119.72975 c -17.08814,-0.46062 -27.004319,-2.86265 -32.310992,-7.82678 -3.899268,-3.64757 -5.238652,-8.3904 -4.218776,-14.938903 0.326186,-2.094397 0.707952,-3.513221 1.946029,-7.232364 1.230493,-3.696363 1.753443,-4.86911 3.055057,-6.851152 1.768343,-2.692759 3.322509,-4.340287 10.921218,-11.577283 1.571637,-1.496824 3.305759,-3.246359 3.853605,-3.887855 0.929084,-1.087904 2.368794,-3.10914 2.368794,-3.325591 0,-0.05265 -0.7523,-0.102698 -1.671778,-0.111223 -0.919478,-0.0085 -1.846731,-0.06377 -2.060563,-0.122773 -0.526254,-0.1452 -1.148655,-1.124851 -2.777428,-4.371638 -1.990183,-3.967216 -3.004559,-7.326874 -3.437542,-11.385288 -0.174641,-1.636931 -0.192933,-5.714268 -0.02846,-6.343333 0.076,-0.290667 0.964964,-0.966255 3.522447,-2.67695 1.881437,-1.258491 3.407425,-2.378193 3.391085,-2.488227 -0.01634,-0.110035 -0.285893,-0.8627 -0.599008,-1.672589 -0.987273,-2.553633 -1.333996,-4.375985 -1.426995,-7.500172 -0.112558,-3.781316 0.333749,-6.537536 1.581962,-9.769569 C 38.4686,8.8252993 46.264134,2.241862 55.440818,0.4372273 c 2.125953,-0.4180778 6.602916,-0.37272942 8.786553,0.0890014 8.2199,1.7381001 14.337248,6.1491934 18.249062,13.1590223 2.383787,4.271658 3.485512,8.840349 3.318908,13.763008 -0.09553,2.822653 -0.4068,4.619174 -1.200988,6.93163 -0.262254,0.76361 -0.555005,1.615761 -0.650559,1.89367 -0.09555,0.277908 -0.144517,0.530044 -0.108804,0.5603 0.03571,0.03026 1.511638,1.004268 3.279836,2.164468 1.768199,1.160201 3.334073,2.291327 3.479723,2.513616 0.236831,0.36145 0.25583,0.785991 0.179794,4.017355 -0.07112,3.022287 -0.148803,3.922882 -0.475022,5.506826 -0.720977,3.500661 -2.061085,6.930301 -4.190322,10.723974 -1.226767,2.185741 -1.156798,2.140852 -3.482134,2.234002 l -1.941073,0.07776 0.81011,1.244114 c 1.692148,2.598695 4.408332,5.424216 7.769258,8.082001 4.147145,3.279516 6.684233,6.182034 9.002463,10.299125 2.782067,4.940842 4.445147,11.001015 4.771537,17.38714 0.16786,3.28445 -0.49927,5.91233 -2.14014,8.4302 -4.010912,6.15464 -13.182192,9.18655 -30.217809,9.98963 -3.517153,0.1658 -14.678954,0.30789 -17.72862,0.22568 z m 20.294605,-10.54222 c 9.863189,-0.80666 16.136779,-2.32711 18.619661,-4.51263 1.039364,-0.91488 1.116168,-1.20526 0.970291,-3.66842 -0.323342,-5.459679 -1.792773,-10.080571 -4.477839,-14.081373 -1.336743,-1.991773 -2.83137,-3.535818 -5.441603,-5.621517 -2.452688,-1.959812 -5.837125,-5.168672 -7.285916,-6.907939 -3.103877,-3.72619 -5.141376,-7.523899 -6.123955,-11.414479 -0.525728,-2.081655 -0.757,-4.092607 -0.809081,-7.035153 l -0.03923,-2.216299 5.099594,2.21e-4 5.099596,2.21e-4 0.469118,-1.045575 c 0.681376,-1.518662 1.075104,-3.048001 1.172149,-4.552937 l 0.08524,-1.321871 -5.685305,-3.732341 -5.685304,-3.732341 1.190164,-1.0886 c 4.236077,-3.874582 6.099201,-9.602233 4.936899,-15.177111 -1.136147,-5.449424 -5.248604,-10.109635 -10.40597,-11.791982 -2.201363,-0.718091 -3.099484,-0.856758 -5.451521,-0.841696 -2.635896,0.01688 -4.471367,0.434281 -6.757088,1.53662 -4.163475,2.007925 -7.094745,5.494671 -8.504567,10.116182 -0.389641,1.277278 -0.423128,1.600245 -0.433761,4.183393 -0.01007,2.447482 0.03307,2.965371 0.343275,4.121126 0.413727,1.541431 1.44734,3.777179 2.388404,5.166214 0.66111,0.975816 2.296385,2.720684 3.154105,3.365486 0.270482,0.203338 0.396333,0.396644 0.311029,0.477738 -0.0788,0.07491 -2.654401,1.791487 -5.72355,3.814605 l -5.58027,3.678398 0.104947,1.158133 c 0.137655,1.51908 0.563455,3.150162 1.18558,4.541518 l 0.503046,1.125041 h 5.111149 5.111148 l -0.0025,1.516263 c -0.0035,2.184888 -0.25948,4.96126 -0.613712,6.657572 -1.476395,7.070006 -5.928753,13.315014 -14.07992,19.74891 -2.97875,2.351195 -4.889233,4.648243 -6.52383,7.843856 -1.862063,3.640308 -3.040294,8.571623 -3.040294,12.724707 0,1.51007 0.274123,1.99434 1.654028,2.92201 3.305673,2.22233 10.542432,3.65969 21.439833,4.25836 3.955481,0.21731 20.237406,0.0702 23.715918,-0.21431 z"
       id="path6"
       transform="matrix(1.5798976,0,0,1.5798976,-25.278586,-0.00422242)" />
    <path
       class="cls-4"
       d="M 67.54,21.62 C 82.08,23.88 60.85,40.74 54.14,39.95 47.77,39.19 53.91,19.51 67.54,21.62 Z"
       id="path5" />
  </g>
</svg>
