<?xml version="1.0" encoding="UTF-8" standalone="no"?>
<svg
   viewBox="0 0 120 120"
   fill="none"
   version="1.1"
   id="svg11"
   sodipodi:docname="Duolingo.svg"
   width="120"
   height="120"
   inkscape:version="1.3.2 (091e20e, 2023-11-25, custom)"
   xmlns:inkscape="http://www.inkscape.org/namespaces/inkscape"
   xmlns:sodipodi="http://sodipodi.sourceforge.net/DTD/sodipodi-0.dtd"
   xmlns="http://www.w3.org/2000/svg"
   xmlns:svg="http://www.w3.org/2000/svg">
  <defs
     id="defs11" />
  <sodipodi:namedview
     id="namedview11"
     pagecolor="#505050"
     bordercolor="#eeeeee"
     borderopacity="1"
     inkscape:showpageshadow="0"
     inkscape:pageopacity="0"
     inkscape:pagecheckerboard="0"
     inkscape:deskcolor="#505050"
     inkscape:zoom="3.444"
     inkscape:cx="54.732869"
     inkscape:cy="70.702671"
     inkscape:window-width="1920"
     inkscape:window-height="1057"
     inkscape:window-x="-8"
     inkscape:window-y="-8"
     inkscape:window-maximized="1"
     inkscape:current-layer="svg11" />
  <path
     fill-rule="evenodd"
     clip-rule="evenodd"
     d="m 22.879636,0 h 74.48857 c 12.636184,0 22.876454,10.240315 22.876454,22.887998 v 74.488571 c 0,12.636191 -10.24027,22.888001 -22.887998,22.888001 H 22.879636 C 10.231952,120.25302 -0.00836261,110.01276 -0.00836261,97.365025 V 22.887998 C -0.00836261,10.240315 10.231952,0 22.879636,0 Z"
     fill="#50c800"
     id="path1"
     style="stroke-width:0.481012" />
  <path
     fill-rule="evenodd"
     clip-rule="evenodd"
     d="M 120.24851,77.682972 V 42.898871 c -1.36223,-3.323409 -3.37045,-6.317998 -5.85969,-8.831093 0.22319,-3.734434 -0.61089,-7.515814 -2.5484,-10.88617 -1.26843,-2.207797 -4.33344,-2.52488 -6.04777,-0.622429 l -3.88706,4.309868 c -0.0236,-0.01174 -0.0471,-0.01174 -0.0707,-0.02347 0.50507,-3.934102 -0.1645,-7.997308 -2.090474,-11.626063 C 98.546696,12.96477 95.951636,12.56553 94.1666,14.397513 L 75.494182,33.316196 c -0.211165,0.19962 -0.434354,0.411025 -0.645519,0.622382 -0.01203,0.01179 -0.0356,0.02352 -0.04714,0.03526 -8.114674,7.351404 -20.762406,7.656751 -28.489673,0.904255 -0.481493,-0.528488 -0.986459,-1.033455 -1.514947,-1.526685 l -18.70733,-18.94216 c -1.784988,-1.831982 -4.380289,-1.432694 -5.578105,0.82205 -1.914188,3.61697 -2.595301,7.656702 -2.102071,11.567283 -0.03526,0.01174 -0.07047,0.01174 -0.105726,0.02347 L 14.46356,22.559179 C 12.74904,20.656728 9.683983,20.973811 8.4039617,23.181608 6.5015108,26.481495 5.6677244,30.180671 5.843871,33.844636 3.3894876,36.26379 1.3930998,39.152701 -0.0161133,42.358646 V 78.234693 C 4.1997909,87.853011 13.80592,94.581889 24.973962,94.581889 h 1.197817 c 11.074101,0 20.609781,-6.611511 24.872558,-16.100437 4.098704,-0.02357 7.069435,-0.03511 8.913635,-0.03511 3.9924,-0.01154 7.104549,-0.01154 9.335964,-0.01154 4.251185,9.512014 13.810338,16.147095 24.895743,16.147095 h 0.845619 c 11.379782,0 21.126532,-6.987663 25.213212,-16.898917 z"
     fill="#8ee000"
     id="path2"
     style="stroke-width:0.481012" />
  <path
     fill-rule="evenodd"
     clip-rule="evenodd"
     d="m 26.665009,35.699996 c 10.475192,0 18.977466,8.490537 18.977466,18.977611 v 11.238366 c 0,10.475 -8.490537,18.97737 -18.977466,18.97737 -10.475145,0 -18.9774186,-8.490344 -18.9774186,-18.97737 V 54.677607 c 0,-10.487074 8.5022736,-18.977611 18.9774186,-18.977611 z"
     fill="#ffffff"
     id="path3"
     style="stroke-width:0.481012" />
  <path
     fill-rule="evenodd"
     clip-rule="evenodd"
     d="m 93.332996,35.699996 c 10.475004,0 18.977374,8.490537 18.977374,18.977611 v 11.238366 c 0,10.475 -8.49083,18.97737 -18.977374,18.97737 -10.475481,0 -18.977851,-8.490344 -18.977851,-18.97737 V 54.677607 c 0,-10.487074 8.490825,-18.977611 18.977851,-18.977611 z"
     fill="#ffffff"
     id="path4"
     style="stroke-width:0.481012" />
  <path
     fill-rule="evenodd"
     clip-rule="evenodd"
     d="m 29.589129,46.598046 c 4.967508,0 9.00724,4.027996 9.00724,9.007433 v 9.617837 c 0,4.967412 -4.027995,9.006951 -9.00724,9.006951 -4.96746,0 -9.007192,-4.027995 -9.007192,-9.006951 v -9.617837 c 0,-4.979437 4.039732,-9.007433 9.007192,-9.007433 z"
     fill="#4b4b4b"
     id="path5"
     style="stroke-width:0.481012" />
  <path
     fill-rule="evenodd"
     clip-rule="evenodd"
     d="m 60.122959,68.431666 c 5.695183,0 10.310494,4.615311 10.310494,10.310495 v 3.582097 c 0,5.695664 -4.615311,10.310494 -10.310494,10.310494 -5.695664,0 -10.310975,-4.61483 -10.310975,-10.310494 v -3.582097 c 0,-5.695184 4.615311,-10.310495 10.310975,-10.310495 z"
     fill="#f48000"
     id="path6"
     style="stroke-width:0.481012" />
  <path
     d="M 45.889667,79.728716 C 47.122741,73.1528 53.21755,68.408097 60.510174,68.408097 c 6.635081,0 12.636188,4.86207 13.845452,11.320619 v 0.528633 c 0,0.411265 -0.140937,0.57529 -0.516607,0.528632 l -13.31682,2.371871 c -0.364126,0 -0.411265,0 -0.786936,0 L 46.40637,80.773956 c -0.375815,0.04714 -0.516703,-0.117367 -0.516703,-0.528152 z"
     fill="#ffc200"
     id="path7"
     style="stroke-width:0.481012" />
  <path
     fill-rule="evenodd"
     clip-rule="evenodd"
     d="m 57.938202,70.68617 c 0.693139,-0.164025 1.409366,-0.258303 2.125593,-0.258303 0.763366,0 1.538757,0.09428 2.302123,0.293898 1.549821,0.39924 2.630175,1.79658 2.630175,3.39354 0,1.291999 -1.04524,2.325213 -2.325213,2.325213 h -5.096323 c -1.291998,0 -2.325212,-1.04524 -2.325212,-2.325213 -0.01203,-1.620529 1.103922,-3.041439 2.688857,-3.429135 z"
     fill="#ffe747"
     id="path8"
     style="stroke-width:0.481012" />
  <path
     fill-rule="evenodd"
     clip-rule="evenodd"
     d="m 90.408442,46.598046 c 4.967893,0 9.007433,4.027996 9.007433,9.007433 v 9.617837 c 0,4.967412 -4.027995,9.006951 -9.007433,9.006951 -4.967411,0 -9.006951,-4.027995 -9.006951,-9.006951 v -9.617837 c 0.01154,-4.979437 4.03954,-9.007433 9.006951,-9.007433 z"
     fill="#4b4b4b"
     id="path9"
     style="stroke-width:0.481012" />
  <path
     d="m 21.979374,57.519426 c 3.210467,0 5.813031,-2.592174 5.813031,-5.789461 0,-3.197288 -2.602564,-5.789558 -5.813031,-5.789558 -3.210419,0 -5.812983,2.59227 -5.812983,5.789558 0,3.197287 2.602564,5.789461 5.812983,5.789461 z"
     fill="#ffffff"
     id="path10"
     style="stroke-width:0.481012" />
  <path
     d="m 81.918098,57.519426 c 3.210275,0 5.813031,-2.592174 5.813031,-5.789461 0,-3.197288 -2.602756,-5.789558 -5.813031,-5.789558 -3.210756,0 -5.813031,2.59227 -5.813031,5.789558 0,3.197287 2.602275,5.789461 5.813031,5.789461 z"
     fill="#ffffff"
     id="path11"
     style="stroke-width:0.481012" />
</svg>
