<?xml version="1.0" encoding="UTF-8" standalone="no"?>
<!-- Created with Inkscape (http://www.inkscape.org/) -->

<svg
   version="1.1"
   id="svg1"
   width="15.106938"
   height="12.526922"
   viewBox="0 0 15.106938 12.526922"
   sodipodi:docname="home-icon.svg"
   inkscape:version="1.3.2 (091e20e, 2023-11-25, custom)"
   xmlns:inkscape="http://www.inkscape.org/namespaces/inkscape"
   xmlns:sodipodi="http://sodipodi.sourceforge.net/DTD/sodipodi-0.dtd"
   xmlns="http://www.w3.org/2000/svg"
   xmlns:svg="http://www.w3.org/2000/svg">
  <defs
     id="defs1" />
  <sodipodi:namedview
     id="namedview1"
     pagecolor="#505050"
     bordercolor="#eeeeee"
     borderopacity="1"
     inkscape:showpageshadow="0"
     inkscape:pageopacity="0"
     inkscape:pagecheckerboard="0"
     inkscape:deskcolor="#505050"
     inkscape:zoom="22.627417"
     inkscape:cx="-4.839262"
     inkscape:cy="5.4137863"
     inkscape:window-width="1920"
     inkscape:window-height="1057"
     inkscape:window-x="-8"
     inkscape:window-y="-8"
     inkscape:window-maximized="1"
     inkscape:current-layer="g1" />
  <g
     inkscape:groupmode="layer"
     inkscape:label="Image"
     id="g1"
     transform="translate(-0.7488904,-2.9160156)">
    <path
       id="rect12"
       style="display:inline;opacity:1;fill:#ffffff"
       d="m 8.1542969,2.9160156 c -0.6959292,0.3643254 -1.3404849,0.8204406 -2,1.2460938 C 5.667019,4.85691 4.7966388,5.0863563 4.2089844,5.6425781 3.6109827,6.1190521 2.968759,6.5312808 2.40625,7.0566406 1.8744418,7.5112708 1.1839157,7.8162236 0.77734375,8.3964844 0.57693695,8.9113924 1.4864752,9.5210741 1.9003906,8.9707031 2.4489209,8.6881147 2.9229768,8.2878916 3.4082031,7.9101562 4.0432618,7.4424482 4.6521621,6.9492914 5.3066406,6.5039062 5.8433878,5.9599704 6.5188143,5.5966008 7.1015625,5.1054688 7.5635724,4.7665074 8.1914847,3.856873 8.8066406,4.3125 c 0.5753071,0.5560848 1.2429244,0.9856691 1.8515624,1.5019531 0.56534,0.4730832 1.126121,0.8909111 1.703125,1.3300781 0.630193,0.4631692 1.109645,1.0888207 1.810547,1.4511719 0.516394,0.2991944 1.766128,1.2973072 1.679687,0.037109 C 15.683189,7.8436555 14.81329,7.5918975 14.292969,7.0859375 13.865322,6.6193925 12.930981,6.4153015 13.085938,5.6269531 13.117806,4.9505895 13.146575,4.254785 13.046875,3.5839844 12.457993,3.6179142 11.825987,3.4806422 11.275391,3.6992188 11.130074,4.00901 11.433094,5.164268 10.863281,4.4902344 10.210408,4.1070132 9.6702459,3.4781109 8.9570312,3.1484375 8.6947284,3.0605707 8.4252157,2.9688786 8.1542969,2.9160156 Z m 7.1386721,0.00586 c -0.04012,0.05007 0.01589,0.01117 0,0 z M 8.3671875,5.3007812 C 7.6693975,5.345938 7.3071067,6.1683598 6.640625,6.3476562 6.0201507,6.5871388 5.6109037,7.1115262 5.0976562,7.5058594 4.4890056,7.9640254 3.8367973,8.2635059 3.2460938,8.7480469 2.7987701,8.9849493 2.6248767,9.3456985 2.7070312,9.8203125 c 0.022925,1.2055585 -0.1074253,2.4077885 -0.015625,3.6113285 0.026074,0.596231 -0.1250497,1.219122 0.00781,1.796875 0.5522257,0.385834 1.4155649,0.112369 2.0859374,0.193359 0.6179701,-0.09555 1.350843,0.169277 1.9101563,-0.115234 0.013806,-0.588542 -0.015007,-1.176699 0.00781,-1.761719 -0.037215,-0.565068 -0.020918,-1.136985 -0.054687,-1.701172 0.09741,-0.332552 -0.069801,-1.031519 0.4804687,-0.958984 0.866372,0.0201 1.7421855,-0.05295 2.5996094,0.06445 0.397468,0.279171 0.1317201,0.886649 0.2128906,1.3125 0.00561,0.969798 -0.014525,1.944957 0.021484,2.908203 0.2431224,0.406601 0.7704024,0.199541 1.1601564,0.25 0.971856,0.0355 1.937876,-0.08137 2.908203,-0.105469 0.0084,-0.462072 -0.03286,-0.93073 0.07422,-1.384765 -0.08658,-0.920463 0.02357,-1.850072 -0.01758,-2.767579 C 13.945664,10.549299 14.191384,9.8777907 13.943359,9.2949219 13.343085,8.8955267 12.855077,8.3550693 12.263672,7.9394531 11.685213,7.6084929 11.1771,7.0742241 10.607422,6.8359375 10.027767,6.3822295 9.4675103,5.9085975 8.8984375,5.4453125 8.7841152,5.3714787 8.6536406,5.2947144 8.5117188,5.3027344 c -0.049688,-0.00432 -0.098012,-0.00496 -0.1445313,-0.00195 z m 1.2636719,6.4042968 c 0.080558,0.233747 0.02357,0.02653 0,0 z m -7.0957032,3.140625 c -0.027959,0.01501 0.026682,0.09262 0,0 z" />
  </g>
</svg>
