<?xml version="1.0" encoding="UTF-8" standalone="no"?>
<!-- Created with Inkscape (http://www.inkscape.org/) -->

<svg
   version="1.1"
   id="svg1"
   width="16.724739"
   height="16.725"
   viewBox="0 0 16.724739 16.725"
   sodipodi:docname="home-icon.svg"
   inkscape:version="1.3.2 (091e20e, 2023-11-25, custom)"
   xmlns:inkscape="http://www.inkscape.org/namespaces/inkscape"
   xmlns:sodipodi="http://sodipodi.sourceforge.net/DTD/sodipodi-0.dtd"
   xmlns="http://www.w3.org/2000/svg"
   xmlns:svg="http://www.w3.org/2000/svg">
  <defs
     id="defs1" />
  <sodipodi:namedview
     id="namedview1"
     pagecolor="#505050"
     bordercolor="#eeeeee"
     borderopacity="1"
     inkscape:showpageshadow="0"
     inkscape:pageopacity="0"
     inkscape:pagecheckerboard="0"
     inkscape:deskcolor="#505050"
     inkscape:zoom="22.627417"
     inkscape:cx="-4.0879611"
     inkscape:cy="8.2864076"
     inkscape:window-width="1920"
     inkscape:window-height="1057"
     inkscape:window-x="-8"
     inkscape:window-y="-8"
     inkscape:window-maximized="1"
     inkscape:current-layer="g1" />
  <g
     inkscape:groupmode="layer"
     inkscape:label="Image"
     id="g1">
    <path
       id="rect12"
       style="display:inline;opacity:1;fill:#ffffff"
       d="m 13.681641,1.5415891 c 0.0178,0.02416 0.0188,-0.01577 0,0 z m 3.003906,0.582031 c -0.03138,0.0058 0.0707,0.01423 0,0 z m -8.5312501,0.792969 c -0.6959306,0.364326 -1.3404835,0.820439 -2,1.246093 -0.4872789,0.694802 -1.3567152,0.923349 -1.9443708,1.479572 -0.5980029,0.476475 -1.2411659,0.889599 -1.8036761,1.41496 -0.5318092,0.454631 -1.2225947,0.758399 -1.6291675,1.338661 -0.2004072,0.514909 0.7093921,1.125776 1.1233083,0.575404 0.5485313,-0.282589 1.0228993,-0.682515 1.5081266,-1.060251 0.6350599,-0.467709 1.2436428,-0.961163 1.8981227,-1.406549 0.5367482,-0.543937 1.2121716,-0.907304 1.794921,-1.398437 0.4620109,-0.338962 1.0899213,-1.248595 1.7050784,-0.792967 0.5753083,0.556086 1.2429305,0.985667 1.8515705,1.501952 0.56534,0.473084 1.125306,0.889992 1.702312,1.32916 0.630195,0.46317 1.110404,1.089735 1.811308,1.452087 0.516396,0.299195 1.766159,1.29731 1.679718,0.03711 -0.168375,-0.789159 -1.038385,-1.040897 -1.558708,-1.546858 -0.427647,-0.466546 -1.361982,-0.670655 -1.207025,-1.459005 0.03187,-0.676365 0.06069,-1.372167 -0.03901,-2.042969 -0.588884,0.03393 -1.220923,-0.103335 -1.771521,0.115242 -0.145317,0.309792 0.157722,1.46505 -0.412091,0.791015 C 10.210318,4.1075871 9.6702473,3.4786851 8.9570312,3.1490111 8.6947278,3.0611441 8.4252163,2.9694521 8.1542969,2.9165891 Z m 7.1386721,0.0059 c -0.04012,0.05007 0.01589,0.01117 0,0 z m -6.7812502,2.380858 c -0.7950118,-0.06908 -1.1601785,0.853672 -1.8710938,1.044922 -0.6204755,0.239483 -1.028954,0.7627 -1.5422025,1.157034 -0.608652,0.458167 -1.2619701,0.758314 -1.8526748,1.242856 -0.4473245,0.236903 -0.6208708,0.59757 -0.5387161,1.072185 0.022925,1.2055609 -0.1074125,2.4083899 -0.015612,3.6119319 0.026074,0.596233 -0.1248851,1.2176 0.00798,1.795353 0.5522269,0.385836 1.4160924,0.113007 2.0864663,0.193997 0.6179713,-0.09555 1.350156,0.17013 1.9094705,-0.114383 0.013806,-0.588542 -0.015012,-1.176721 0.00781,-1.761743 -0.037215,-0.565068 -0.020908,-1.136978 -0.054677,-1.701167 0.09741,-0.332552 -0.070383,-1.031541 0.4798886,-0.959006 0.8663736,0.0201 1.742765,-0.05278 2.6001907,0.06462 0.3974683,0.279173 0.1317243,0.886068 0.212895,1.311919 0.00561,0.9698 -0.01451,1.945516 0.021501,2.908764 0.2431223,0.406603 0.7704973,0.199541 1.1602513,0.25 0.971858,0.0355 1.937778,-0.08142 2.908107,-0.10552 0.0084,-0.462074 -0.03287,-0.930775 0.07421,-1.384812 -0.08658,-0.920463 0.02348,-1.850075 -0.01767,-2.767584 C 13.94561,10.549899 14.191384,9.8783651 13.943359,9.2954951 13.343083,8.8960991 12.855309,8.3548201 12.263902,7.9392031 11.685443,7.6082421 11.177096,7.0747971 10.607416,6.8365101 10.027761,6.3828011 9.4666843,5.9091531 8.8976103,5.4458671 8.7832878,5.3720331 8.653641,5.2952871 8.5117188,5.3033071 Z m -6.0097657,4.306641 c -0.012024,-6.97e-4 0.00823,0.01865 0,0 z m -0.00391,0.03516 c -0.013457,0.01025 0.01051,0.01083 0,0 z m -0.2460938,0.0625 c -0.013398,1.87e-4 0.012996,0.01781 0,0 z m 7.3789063,1.9980469 c 0.080558,0.233747 0.02357,0.02653 0,0 z m -0.9101563,0.759766 c -0.030441,-5.03e-4 0.011176,0.0075 0,0 z m -1.7285156,0.11914 c -0.00755,0.004 0.0021,0.02686 0,0 z m 8.3671913,0.460894 c -0.037,0.02803 0.09341,0.01309 0,0 z m 0.179687,0.224609 c -0.01024,0.0093 0.02084,0.08962 0,0 z m 1.185547,0.578125 -0.02539,0.04883 z m -1.376953,0.408204 c -0.03477,0.0084 0.08831,0.0035 0,0 z M 2.5351562,14.846276 c -0.027959,0.01501 0.026682,0.09262 0,0 z m 14.0449218,0.119141 0.03906,0.01367 z m -9.7480468,0.441406 c -0.038788,0.0183 0.00429,0.02247 0,0 z" />
  </g>
</svg>
